<svg width="215" height="22" viewBox="0 0 215 22" fill="none" xmlns="http://www.w3.org/2000/svg">
<path d="M0.776 0.199999H4.064V17H0.776V0.199999ZM15.5558 17V10.184C15.5558 9.208 15.4118 8.504 15.1238 8.072C14.8518 7.64 14.3798 7.424 13.7078 7.424C13.1158 7.424 12.6118 7.6 12.1958 7.952C11.7958 8.288 11.5078 8.712 11.3318 9.224V17H8.21175V5H10.6838L11.0438 6.584H11.1398C11.5078 6.072 11.9958 5.624 12.6038 5.24C13.2118 4.856 13.9958 4.664 14.9558 4.664C15.5478 4.664 16.0758 4.744 16.5398 4.904C17.0038 5.064 17.3958 5.328 17.7158 5.696C18.0358 6.064 18.2758 6.568 18.4358 7.208C18.5958 7.832 18.6758 8.608 18.6758 9.536V17H15.5558ZM21.1859 5H22.8419V4.328C22.8419 2.808 23.1619 1.712 23.8019 1.04C24.4419 0.352 25.3699 0.0079999 26.5859 0.0079999C27.8659 0.0079999 28.9299 0.16 29.7779 0.464L29.1779 2.96C28.8099 2.832 28.4819 2.752 28.1939 2.72C27.9219 2.672 27.6339 2.648 27.3299 2.648C27.0099 2.648 26.7539 2.696 26.5619 2.792C26.3859 2.888 26.2499 3.04 26.1539 3.248C26.0739 3.44 26.0179 3.688 25.9859 3.992C25.9699 4.28 25.9619 4.616 25.9619 5H28.6019V7.64H25.9619V17H22.8419V7.64H21.1859V5ZM34.2168 12.968C34.2168 13.528 34.2888 13.936 34.4328 14.192C34.5768 14.448 34.8088 14.576 35.1288 14.576C35.3208 14.576 35.5048 14.56 35.6808 14.528C35.8728 14.496 36.1048 14.424 36.3768 14.312L36.7128 16.76C36.4568 16.888 36.0648 17.016 35.5368 17.144C35.0088 17.272 34.4648 17.336 33.9048 17.336C32.9928 17.336 32.2968 17.128 31.8168 16.712C31.3368 16.28 31.0968 15.576 31.0968 14.6V0.199999H34.2168V12.968ZM42.0555 5V11.816C42.0555 12.792 42.1675 13.496 42.3915 13.928C42.6315 14.36 43.0875 14.576 43.7595 14.576C44.3515 14.576 44.8395 14.4 45.2235 14.048C45.6235 13.696 45.9195 13.264 46.1115 12.752V5H49.2315V13.352C49.2315 14.008 49.2635 14.656 49.3275 15.296C49.3915 15.92 49.4875 16.488 49.6155 17H47.2635L46.7115 15.224H46.6155C46.2475 15.832 45.7355 16.336 45.0795 16.736C44.4235 17.136 43.6475 17.336 42.7515 17.336C42.1435 17.336 41.5995 17.256 41.1195 17.096C40.6395 16.936 40.2395 16.672 39.9195 16.304C39.5995 15.936 39.3515 15.44 39.1755 14.816C39.0155 14.192 38.9355 13.408 38.9355 12.464V5H42.0555ZM62.5696 15.968C62.0896 16.352 61.4336 16.68 60.6016 16.952C59.7856 17.208 58.9136 17.336 57.9856 17.336C56.0496 17.336 54.6336 16.776 53.7376 15.656C52.8416 14.52 52.3936 12.968 52.3936 11C52.3936 8.888 52.8976 7.304 53.9056 6.248C54.9136 5.192 56.3296 4.664 58.1536 4.664C58.7616 4.664 59.3536 4.744 59.9296 4.904C60.5056 5.064 61.0176 5.328 61.4656 5.696C61.9136 6.064 62.2736 6.56 62.5456 7.184C62.8176 7.808 62.9536 8.584 62.9536 9.512C62.9536 9.848 62.9296 10.208 62.8816 10.592C62.8496 10.976 62.7936 11.376 62.7136 11.792H55.5136C55.5616 12.8 55.8176 13.56 56.2816 14.072C56.7616 14.584 57.5296 14.84 58.5856 14.84C59.2416 14.84 59.8256 14.744 60.3376 14.552C60.8656 14.344 61.2656 14.136 61.5376 13.928L62.5696 15.968ZM58.1056 7.16C57.2896 7.16 56.6816 7.408 56.2816 7.904C55.8976 8.384 55.6656 9.032 55.5856 9.848H60.0496C60.1136 8.984 59.9776 8.32 59.6416 7.856C59.3216 7.392 58.8096 7.16 58.1056 7.16ZM73.5011 17V10.184C73.5011 9.208 73.3571 8.504 73.0691 8.072C72.7971 7.64 72.3251 7.424 71.6531 7.424C71.0611 7.424 70.5571 7.6 70.1411 7.952C69.7411 8.288 69.4531 8.712 69.2771 9.224V17H66.1571V5H68.6291L68.9891 6.584H69.0851C69.4531 6.072 69.9411 5.624 70.5491 5.24C71.1571 4.856 71.9411 4.664 72.9011 4.664C73.4931 4.664 74.0211 4.744 74.4851 4.904C74.9491 5.064 75.3411 5.328 75.6611 5.696C75.9811 6.064 76.2211 6.568 76.3811 7.208C76.5411 7.832 76.6211 8.608 76.6211 9.536V17H73.5011ZM88.7312 16.256C88.2512 16.608 87.6672 16.872 86.9792 17.048C86.3072 17.24 85.6112 17.336 84.8912 17.336C83.9312 17.336 83.1152 17.184 82.4432 16.88C81.7872 16.576 81.2512 16.152 80.8352 15.608C80.4192 15.048 80.1152 14.376 79.9232 13.592C79.7472 12.808 79.6592 11.944 79.6592 11C79.6592 8.968 80.1152 7.408 81.0272 6.32C81.9392 5.216 83.2672 4.664 85.0112 4.664C85.8912 4.664 86.5952 4.736 87.1232 4.88C87.6672 5.024 88.1552 5.208 88.5872 5.432L87.8432 7.976C87.4752 7.8 87.1072 7.664 86.7392 7.568C86.3872 7.472 85.9792 7.424 85.5152 7.424C84.6512 7.424 83.9952 7.712 83.5472 8.288C83.0992 8.848 82.8752 9.752 82.8752 11C82.8752 11.512 82.9312 11.984 83.0432 12.416C83.1552 12.848 83.3232 13.224 83.5472 13.544C83.7712 13.864 84.0592 14.12 84.4112 14.312C84.7792 14.488 85.2032 14.576 85.6832 14.576C86.2112 14.576 86.6592 14.512 87.0272 14.384C87.3952 14.24 87.7232 14.072 88.0112 13.88L88.7312 16.256ZM100.82 15.968C100.34 16.352 99.6836 16.68 98.8516 16.952C98.0356 17.208 97.1636 17.336 96.2356 17.336C94.2996 17.336 92.8836 16.776 91.9876 15.656C91.0916 14.52 90.6436 12.968 90.6436 11C90.6436 8.888 91.1476 7.304 92.1556 6.248C93.1636 5.192 94.5796 4.664 96.4036 4.664C97.0116 4.664 97.6036 4.744 98.1796 4.904C98.7556 5.064 99.2676 5.328 99.7156 5.696C100.164 6.064 100.524 6.56 100.796 7.184C101.068 7.808 101.204 8.584 101.204 9.512C101.204 9.848 101.18 10.208 101.132 10.592C101.1 10.976 101.044 11.376 100.964 11.792H93.7636C93.8116 12.8 94.0676 13.56 94.5316 14.072C95.0116 14.584 95.7796 14.84 96.8356 14.84C97.4916 14.84 98.0756 14.744 98.5876 14.552C99.1156 14.344 99.5156 14.136 99.7876 13.928L100.82 15.968ZM96.3556 7.16C95.5396 7.16 94.9316 7.408 94.5316 7.904C94.1476 8.384 93.9156 9.032 93.8356 9.848H98.2996C98.3636 8.984 98.2276 8.32 97.8916 7.856C97.5716 7.392 97.0596 7.16 96.3556 7.16ZM111.031 7.928C110.535 7.752 110.087 7.664 109.687 7.664C109.127 7.664 108.655 7.816 108.271 8.12C107.903 8.408 107.655 8.784 107.527 9.248V17H104.407V5H106.831L107.191 6.584H107.287C107.559 5.992 107.927 5.536 108.391 5.216C108.855 4.896 109.399 4.736 110.023 4.736C110.439 4.736 110.911 4.824 111.439 5L111.031 7.928ZM120.891 5H123.171L123.531 6.44H123.627C124.043 5.832 124.531 5.384 125.091 5.096C125.667 4.808 126.363 4.664 127.179 4.664C128.683 4.664 129.811 5.144 130.563 6.104C131.315 7.048 131.691 8.576 131.691 10.688C131.691 11.712 131.571 12.64 131.331 13.472C131.091 14.288 130.731 14.984 130.251 15.56C129.787 16.136 129.211 16.576 128.523 16.88C127.851 17.184 127.075 17.336 126.195 17.336C125.699 17.336 125.291 17.296 124.971 17.216C124.651 17.152 124.331 17.04 124.011 16.88V21.8H120.891V5ZM126.243 7.304C125.635 7.304 125.155 7.456 124.803 7.76C124.467 8.064 124.203 8.52 124.011 9.128V14.12C124.235 14.296 124.475 14.44 124.731 14.552C125.003 14.648 125.355 14.696 125.787 14.696C126.683 14.696 127.355 14.384 127.803 13.76C128.251 13.12 128.475 12.072 128.475 10.616C128.475 9.56 128.299 8.744 127.947 8.168C127.595 7.592 127.027 7.304 126.243 7.304ZM141.476 7.928C140.98 7.752 140.532 7.664 140.132 7.664C139.572 7.664 139.1 7.816 138.716 8.12C138.348 8.408 138.1 8.784 137.972 9.248V17H134.852V5H137.276L137.636 6.584H137.732C138.004 5.992 138.372 5.536 138.836 5.216C139.3 4.896 139.844 4.736 140.468 4.736C140.884 4.736 141.356 4.824 141.884 5L141.476 7.928ZM143.69 11C143.69 8.968 144.186 7.408 145.178 6.32C146.17 5.216 147.562 4.664 149.354 4.664C150.314 4.664 151.146 4.816 151.85 5.12C152.554 5.424 153.138 5.856 153.602 6.416C154.066 6.96 154.41 7.624 154.634 8.408C154.874 9.192 154.994 10.056 154.994 11C154.994 13.032 154.498 14.6 153.506 15.704C152.53 16.792 151.146 17.336 149.354 17.336C148.394 17.336 147.562 17.184 146.858 16.88C146.154 16.576 145.562 16.152 145.082 15.608C144.618 15.048 144.266 14.376 144.026 13.592C143.802 12.808 143.69 11.944 143.69 11ZM146.906 11C146.906 11.528 146.954 12.016 147.05 12.464C147.146 12.912 147.29 13.304 147.482 13.64C147.674 13.976 147.922 14.24 148.226 14.432C148.546 14.608 148.922 14.696 149.354 14.696C150.17 14.696 150.778 14.4 151.178 13.808C151.578 13.216 151.778 12.28 151.778 11C151.778 9.896 151.594 9.008 151.226 8.336C150.858 7.648 150.234 7.304 149.354 7.304C148.586 7.304 147.986 7.592 147.554 8.168C147.122 8.744 146.906 9.688 146.906 11ZM168.357 12.776C168.357 13.448 168.365 14.12 168.381 14.792C168.397 15.464 168.469 16.208 168.597 17.024H166.365L165.933 15.464H165.837C165.517 16.024 165.053 16.48 164.445 16.832C163.853 17.168 163.149 17.336 162.333 17.336C160.829 17.336 159.661 16.84 158.829 15.848C157.997 14.856 157.581 13.304 157.581 11.192C157.581 9.144 158.045 7.552 158.973 6.416C159.901 5.28 161.261 4.712 163.053 4.712C163.549 4.712 163.957 4.744 164.277 4.808C164.597 4.856 164.917 4.944 165.237 5.072V0.199999H168.357V12.776ZM163.053 14.696C163.661 14.696 164.141 14.552 164.493 14.264C164.845 13.96 165.093 13.528 165.237 12.968V7.88C165.013 7.704 164.765 7.576 164.493 7.496C164.221 7.4 163.869 7.352 163.437 7.352C162.557 7.352 161.893 7.648 161.445 8.24C161.013 8.832 160.797 9.848 160.797 11.288C160.797 12.312 160.973 13.136 161.325 13.76C161.693 14.384 162.269 14.696 163.053 14.696ZM175.095 5V11.816C175.095 12.792 175.207 13.496 175.431 13.928C175.671 14.36 176.127 14.576 176.799 14.576C177.391 14.576 177.879 14.4 178.263 14.048C178.663 13.696 178.959 13.264 179.151 12.752V5H182.271V13.352C182.271 14.008 182.303 14.656 182.367 15.296C182.431 15.92 182.527 16.488 182.655 17H180.303L179.751 15.224H179.655C179.287 15.832 178.775 16.336 178.119 16.736C177.463 17.136 176.687 17.336 175.791 17.336C175.183 17.336 174.639 17.256 174.159 17.096C173.679 16.936 173.279 16.672 172.959 16.304C172.639 15.936 172.391 15.44 172.215 14.816C172.055 14.192 171.975 13.408 171.975 12.464V5H175.095ZM194.505 16.256C194.025 16.608 193.441 16.872 192.753 17.048C192.081 17.24 191.385 17.336 190.665 17.336C189.705 17.336 188.889 17.184 188.217 16.88C187.561 16.576 187.025 16.152 186.609 15.608C186.193 15.048 185.889 14.376 185.697 13.592C185.521 12.808 185.433 11.944 185.433 11C185.433 8.968 185.889 7.408 186.801 6.32C187.713 5.216 189.041 4.664 190.785 4.664C191.665 4.664 192.369 4.736 192.897 4.88C193.441 5.024 193.929 5.208 194.361 5.432L193.617 7.976C193.249 7.8 192.881 7.664 192.513 7.568C192.161 7.472 191.753 7.424 191.289 7.424C190.425 7.424 189.769 7.712 189.321 8.288C188.873 8.848 188.649 9.752 188.649 11C188.649 11.512 188.705 11.984 188.817 12.416C188.929 12.848 189.097 13.224 189.321 13.544C189.545 13.864 189.833 14.12 190.185 14.312C190.553 14.488 190.977 14.576 191.457 14.576C191.985 14.576 192.433 14.512 192.801 14.384C193.169 14.24 193.497 14.072 193.785 13.88L194.505 16.256ZM196.143 5H197.799V2.744L200.919 1.856V5H203.847V7.64H200.919V12.248C200.919 13.08 200.999 13.68 201.159 14.048C201.335 14.4 201.655 14.576 202.119 14.576C202.439 14.576 202.711 14.544 202.935 14.48C203.175 14.416 203.439 14.32 203.727 14.192L204.279 16.592C203.847 16.8 203.343 16.976 202.767 17.12C202.191 17.264 201.607 17.336 201.015 17.336C199.911 17.336 199.095 17.056 198.567 16.496C198.055 15.92 197.799 14.984 197.799 13.688V7.64H196.143V5ZM211.727 13.688C211.727 13.368 211.591 13.112 211.319 12.92C211.047 12.728 210.711 12.552 210.311 12.392C209.911 12.232 209.471 12.072 208.991 11.912C208.511 11.736 208.071 11.504 207.671 11.216C207.271 10.912 206.935 10.536 206.663 10.088C206.391 9.624 206.255 9.032 206.255 8.312C206.255 7.128 206.607 6.224 207.311 5.6C208.015 4.976 209.031 4.664 210.359 4.664C211.271 4.664 212.095 4.76 212.831 4.952C213.567 5.144 214.143 5.36 214.559 5.6L213.863 7.856C213.495 7.712 213.031 7.56 212.471 7.4C211.911 7.24 211.343 7.16 210.767 7.16C209.839 7.16 209.375 7.52 209.375 8.24C209.375 8.528 209.511 8.76 209.783 8.936C210.055 9.112 210.391 9.28 210.791 9.44C211.191 9.584 211.631 9.744 212.111 9.92C212.591 10.096 213.031 10.328 213.431 10.616C213.831 10.888 214.167 11.248 214.439 11.696C214.711 12.144 214.847 12.72 214.847 13.424C214.847 14.64 214.455 15.6 213.671 16.304C212.903 16.992 211.743 17.336 210.191 17.336C209.343 17.336 208.543 17.224 207.791 17C207.055 16.792 206.455 16.544 205.991 16.256L206.855 13.928C207.223 14.136 207.711 14.344 208.319 14.552C208.927 14.744 209.551 14.84 210.191 14.84C210.655 14.84 211.023 14.752 211.295 14.576C211.583 14.4 211.727 14.104 211.727 13.688Z" fill="#3A3A3A"/>
</svg>
