<svg width="36" height="34" viewBox="0 0 36 34" fill="none" xmlns="http://www.w3.org/2000/svg">
<g clip-path="url(#clip0_726_324)">
<path d="M13.3301 29.3425C14.5727 29.3425 15.5801 28.4191 15.5801 27.28C15.5801 26.1409 14.5727 25.2175 13.3301 25.2175C12.0874 25.2175 11.0801 26.1409 11.0801 27.28C11.0801 28.4191 12.0874 29.3425 13.3301 29.3425Z" fill="black"/>
<path d="M27 29.3425C28.2426 29.3425 29.25 28.4191 29.25 27.28C29.25 26.1409 28.2426 25.2175 27 25.2175C25.7574 25.2175 24.75 26.1409 24.75 27.28C24.75 28.4191 25.7574 29.3425 27 29.3425Z" fill="black"/>
<path d="M22.5702 6.42586C22.5247 6.12207 22.5013 5.81584 22.5002 5.5092C22.5013 5.20255 22.5247 4.89632 22.5702 4.59253H11.4902L12.1402 6.42586H22.5702Z" fill="black"/>
<path d="M30 12.3843H29.58L28.33 17.426H13.33L8.75999 4.16181C8.71056 4.02106 8.62472 3.89336 8.50979 3.78961C8.39487 3.68586 8.25427 3.60913 8.09999 3.56597L3.99999 2.41097C3.87392 2.37546 3.74145 2.36306 3.61016 2.37447C3.47886 2.38589 3.3513 2.4209 3.23476 2.47751C2.9994 2.59182 2.82323 2.78717 2.74499 3.02056C2.66675 3.25395 2.69286 3.50627 2.81757 3.72201C2.94228 3.93776 3.15538 4.09925 3.40999 4.17097L6.99999 5.17931L11.59 18.471L9.94999 19.6993L9.81999 19.8185C9.41432 20.247 9.18439 20.7918 9.16979 21.359C9.15518 21.9262 9.35683 22.4804 9.73999 22.926C10.0125 23.2298 10.3589 23.471 10.7513 23.6301C11.1438 23.7893 11.5714 23.8621 12 23.8426H28.69C28.9552 23.8426 29.2096 23.7461 29.3971 23.5742C29.5846 23.4022 29.69 23.1691 29.69 22.926C29.69 22.6829 29.5846 22.4497 29.3971 22.2778C29.2096 22.1059 28.9552 22.0093 28.69 22.0093H11.84C11.7248 22.0057 11.6126 21.9749 11.5142 21.92C11.4159 21.865 11.3346 21.7877 11.2783 21.6956C11.222 21.6034 11.1926 21.4995 11.1929 21.3939C11.1932 21.2883 11.2232 21.1845 11.28 21.0926L13.69 19.2593H29.13C29.3611 19.2645 29.5871 19.1961 29.7695 19.0657C29.9518 18.9353 30.0792 18.7511 30.13 18.5443L31.7 12.2101C31.1424 12.3274 30.572 12.3858 30 12.3843V12.3843Z" fill="black"/>
<path d="M30 10.0927C32.7614 10.0927 35 8.04066 35 5.50936C35 2.97805 32.7614 0.926025 30 0.926025C27.2386 0.926025 25 2.97805 25 5.50936C25 8.04066 27.2386 10.0927 30 10.0927Z" fill="black"/>
</g>
<defs>
<clipPath id="clip0_726_324">
<rect width="36" height="33" fill="white" transform="translate(0 0.00927734)"/>
</clipPath>
</defs>
</svg>
